<svg height="862.5" viewBox="52.5 -7.5 2550 982.5" width="2430" xmlns="http://www.w3.org/2000/svg">
<style>
.species { font: italic 12px serif; fill: orange; }
</style>
<style>
.gene_0 { font: 10px serif; fill:rgb(52, 218, 237); }
</style>
<style>
.rouge { font: 10px serif; fill:red ; }
</style>
<g>
<path d="M45,115.5 L45,52.5 L180.18604,52.5 M60,115.5 L60,67.5 L190.68604,67.5" fill="none" opacity="0.9" stroke="pink" stroke-width="6"/>
<path d="M-7.5,775.5 L-7.5,112.5 L42,112.5 M7.5,775.5 L7.5,127.5 L52.5,127.5" fill="none" opacity="0.9" stroke="pink" stroke-width="6"/>
<path d="M-7.5,772.5 L-7.5,795 L7.5,795 L7.5,772.5" fill="none" opacity="0.9" stroke="pink" stroke-width="6"/>
<text class="species" transform="rotate(90 0,780)" x="-15" y="762.5">
TBORE
</text>
<path d="M112.5,175.5 L112.5,112.5 L63,112.5 M97.5,175.5 L97.5,127.5 L52.5,127.5" fill="none" opacity="0.9" stroke="pink" stroke-width="6"/>
<path d="M52.5,775.5 L52.5,172.5 L94.5,172.5 M67.5,775.5 L67.5,187.5 L105,187.5" fill="none" opacity="0.9" stroke="pink" stroke-width="6"/>
<path d="M52.5,772.5 L52.5,795 L67.5,795 L67.5,772.5" fill="none" opacity="0.9" stroke="pink" stroke-width="6"/>
<text class="species" transform="rotate(90 60,780)" x="45" y="762.5">
TELLI
</text>
<path d="M157.5,235.5 L157.5,172.5 L115.5,172.5 M142.5,235.5 L142.5,187.5 L105,187.5" fill="none" opacity="0.9" stroke="pink" stroke-width="6"/>
<path d="M112.5,775.5 L112.5,232.5 L139.5,232.5 M127.5,775.5 L127.5,247.5 L150,247.5" fill="none" opacity="0.9" stroke="pink" stroke-width="6"/>
<path d="M112.5,772.5 L112.5,795 L127.5,795 L127.5,772.5" fill="none" opacity="0.9" stroke="pink" stroke-width="6"/>
<text class="species" transform="rotate(90 120,780)" x="105" y="762.5">
TMALA
</text>
<path d="M187.5,775.5 L187.5,232.5 L160.5,232.5 M172.5,775.5 L172.5,247.5 L150,247.5" fill="none" opacity="0.9" stroke="pink" stroke-width="6"/>
<path d="M172.5,772.5 L172.5,795 L187.5,795 L187.5,772.5" fill="none" opacity="0.9" stroke="pink" stroke-width="6"/>
<text class="species" transform="rotate(90 180,780)" x="165" y="762.5">
TTHER
</text>
<path d="M336.37207,115.5 L336.37207,52.5 L201.18604,52.5 M321.37207,115.5 L321.37207,67.5 L190.68604,67.5" fill="none" opacity="0.9" stroke="pink" stroke-width="6"/>
<path d="M232.5,775.5 L232.5,112.5 L318.37207,112.5 M247.5,775.5 L247.5,127.5 L328.87207,127.5" fill="none" opacity="0.9" stroke="pink" stroke-width="6"/>
<path d="M232.5,772.5 L232.5,795 L247.5,795 L247.5,772.5" fill="none" opacity="0.9" stroke="pink" stroke-width="6"/>
<text class="species" transform="rotate(90 240,780)" x="225" y="762.5">
PBURS
</text>
<path d="M425.24414,175.5 L425.24414,112.5 L339.37207,112.5 M410.24414,175.5 L410.24414,127.5 L328.87207,127.5" fill="none" opacity="0.9" stroke="pink" stroke-width="6"/>
<path d="M300,775.5 L300,172.5 L407.24414,172.5 M315,775.5 L315,187.5 L417.74414,187.5" fill="none" opacity="0.9" stroke="pink" stroke-width="6"/>
<path d="M300,772.5 L300,795 L315,795 L315,772.5" fill="none" opacity="0.9" stroke="pink" stroke-width="6"/>
<text class="species" transform="rotate(90 307.5,780)" x="292.5" y="762.5">
PPOLY
</text>
<path d="M535.4883,235.5 L535.4883,172.5 L428.24414,172.5 M520.4883,235.5 L520.4883,187.5 L417.74414,187.5" fill="none" opacity="0.9" stroke="pink" stroke-width="6"/>
<path d="M382.5,775.5 L382.5,232.5 L517.4883,232.5 M397.5,775.5 L397.5,247.5 L527.9883,247.5" fill="none" opacity="0.9" stroke="pink" stroke-width="6"/>
<path d="M382.5,772.5 L382.5,795 L397.5,795 L397.5,772.5" fill="none" opacity="0.9" stroke="pink" stroke-width="6"/>
<text class="species" transform="rotate(90 390,780)" x="375" y="762.5">
PGOER
</text>
<path d="M673.47656,295.5 L673.47656,232.5 L538.4883,232.5 M658.47656,295.5 L658.47656,247.5 L527.9883,247.5" fill="none" opacity="0.9" stroke="pink" stroke-width="6"/>
<path d="M465,775.5 L465,292.5 L655.47656,292.5 M480,775.5 L480,307.5 L665.97656,307.5" fill="none" opacity="0.9" stroke="pink" stroke-width="6"/>
<path d="M465,772.5 L465,795 L480,795 L480,772.5" fill="none" opacity="0.9" stroke="pink" stroke-width="6"/>
<text class="species" transform="rotate(90 472.5,780)" x="457.5" y="762.5">
PCAUD
</text>
<path d="M866.9531,355.5 L866.9531,292.5 L676.47656,292.5 M851.9531,355.5 L851.9531,307.5 L665.97656,307.5" fill="none" opacity="0.9" stroke="pink" stroke-width="6"/>
<path d="M547.5,775.5 L547.5,352.5 L848.9531,352.5 M562.5,775.5 L562.5,367.5 L859.4531,367.5" fill="none" opacity="0.9" stroke="pink" stroke-width="6"/>
<path d="M547.5,772.5 L547.5,795 L562.5,795 L562.5,772.5" fill="none" opacity="0.9" stroke="pink" stroke-width="6"/>
<text class="species" transform="rotate(90 555,780)" x="540" y="762.5">
PMUL
</text>
<path d="M1178.9063,408 L1178.9063,352.5 L869.9531,352.5 M1148.9063,408 L1148.9063,367.5 L859.4531,367.5" fill="none" opacity="0.9" stroke="pink" stroke-width="6"/>
<path d="M787.5,475.5 L787.5,405 L1145.9063,405 M802.5,475.5 L802.5,435 L1163.9063,435" fill="none" opacity="0.9" stroke="pink" stroke-width="6"/>
<path d="M690,520.5 L690,472.5 L784.5,472.5 M735,520.5 L735,487.5 L795,487.5" fill="none" opacity="0.9" stroke="pink" stroke-width="6"/>
<path d="M637.5,768 L637.5,517.5 L687,517.5 M667.5,768 L667.5,562.5 L712.5,562.5" fill="none" opacity="0.9" stroke="pink" stroke-width="6"/>
<path d="M637.5,765 L637.5,810 L667.5,810 L667.5,765" fill="none" opacity="0.9" stroke="pink" stroke-width="6"/>
<text class="species" transform="rotate(90 652.5,780)" x="637.5" y="755">
PJENN
</text>
<path d="M787.5,768 L787.5,517.5 L738,517.5 M757.5,768 L757.5,562.5 L712.5,562.5" fill="none" opacity="0.9" stroke="pink" stroke-width="6"/>
<path d="M757.5,765 L757.5,810 L787.5,810 L787.5,765" fill="none" opacity="0.9" stroke="pink" stroke-width="6"/>
<text class="species" transform="rotate(90 772.5,780)" x="757.5" y="755">
PSONN
</text>
<path d="M892.5,768 L892.5,472.5 L805.5,472.5 M862.5,768 L862.5,487.5 L795,487.5" fill="none" opacity="0.9" stroke="pink" stroke-width="6"/>
<path d="M862.5,765 L862.5,810 L892.5,810 L892.5,765" fill="none" opacity="0.9" stroke="pink" stroke-width="6"/>
<text class="species" transform="rotate(90 877.5,780)" x="862.5" y="755">
PSEXA
</text>
<path d="M1555.3125,460.5 L1555.3125,405 L1181.9063,405 M1510.3125,460.5 L1510.3125,435 L1163.9063,435" fill="none" opacity="0.9" stroke="pink" stroke-width="6"/>
<path d="M1175.625,528 L1175.625,457.5 L1507.3125,457.5 M1205.625,528 L1205.625,502.5 L1532.8125,502.5" fill="none" opacity="0.9" stroke="pink" stroke-width="6"/>
<path d="M1012.5,588 L1012.5,525 L1172.625,525 M1042.5,588 L1042.5,555 L1190.625,555" fill="none" opacity="0.9" stroke="pink" stroke-width="6"/>
<path d="M952.5,768 L952.5,585 L1009.5,585 M982.5,768 L982.5,615 L1027.5,615" fill="none" opacity="0.9" stroke="pink" stroke-width="6"/>
<path d="M952.5,765 L952.5,810 L982.5,810 L982.5,765" fill="none" opacity="0.9" stroke="pink" stroke-width="6"/>
<text class="species" transform="rotate(90 967.5,780)" x="952.5" y="755">
PDECA
</text>
<path d="M1102.5,768 L1102.5,585 L1045.5,585 M1072.5,768 L1072.5,615 L1027.5,615" fill="none" opacity="0.9" stroke="pink" stroke-width="6"/>
<path d="M1072.5,765 L1072.5,810 L1102.5,810 L1102.5,765" fill="none" opacity="0.9" stroke="pink" stroke-width="6"/>
<text class="species" transform="rotate(90 1087.5,780)" x="1072.5" y="755">
PDODE
</text>
<path d="M1368.75,588 L1368.75,525 L1208.625,525 M1338.75,588 L1338.75,555 L1190.625,555" fill="none" opacity="0.9" stroke="pink" stroke-width="6"/>
<path d="M1222.5,648 L1222.5,585 L1335.75,585 M1252.5,648 L1252.5,615 L1353.75,615" fill="none" opacity="0.9" stroke="pink" stroke-width="6"/>
<path d="M1162.5,768 L1162.5,645 L1219.5,645 M1192.5,768 L1192.5,675 L1237.5,675" fill="none" opacity="0.9" stroke="pink" stroke-width="6"/>
<path d="M1162.5,765 L1162.5,810 L1192.5,810 L1192.5,765" fill="none" opacity="0.9" stroke="pink" stroke-width="6"/>
<text class="species" transform="rotate(90 1177.5,780)" x="1162.5" y="755">
POCTA138
</text>
<path d="M1312.5,768 L1312.5,645 L1255.5,645 M1282.5,768 L1282.5,675 L1237.5,675" fill="none" opacity="0.9" stroke="pink" stroke-width="6"/>
<path d="M1282.5,765 L1282.5,810 L1312.5,810 L1312.5,765" fill="none" opacity="0.9" stroke="pink" stroke-width="6"/>
<text class="species" transform="rotate(90 1297.5,780)" x="1282.5" y="755">
POCTAK8
</text>
<path d="M1485,648 L1485,585 L1371.75,585 M1455,648 L1455,615 L1353.75,615" fill="none" opacity="0.9" stroke="pink" stroke-width="6"/>
<path d="M1372.5,768 L1372.5,645 L1452,645 M1402.5,768 L1402.5,675 L1470,675" fill="none" opacity="0.9" stroke="pink" stroke-width="6"/>
<path d="M1372.5,765 L1372.5,810 L1402.5,810 L1402.5,765" fill="none" opacity="0.9" stroke="pink" stroke-width="6"/>
<text class="species" transform="rotate(90 1387.5,780)" x="1372.5" y="755">
PTETR32
</text>
<path d="M1567.5,708 L1567.5,645 L1488,645 M1537.5,708 L1537.5,675 L1470,675" fill="none" opacity="0.9" stroke="pink" stroke-width="6"/>
<path d="M1477.5,768 L1477.5,705 L1534.5,705 M1507.5,768 L1507.5,735 L1552.5,735" fill="none" opacity="0.9" stroke="pink" stroke-width="6"/>
<path d="M1477.5,765 L1477.5,810 L1507.5,810 L1507.5,765" fill="none" opacity="0.9" stroke="pink" stroke-width="6"/>
<text class="species" transform="rotate(90 1492.5,780)" x="1477.5" y="755">
PTETR51
</text>
<path d="M1627.5,768 L1627.5,705 L1570.5,705 M1597.5,768 L1597.5,735 L1552.5,735" fill="none" opacity="0.9" stroke="pink" stroke-width="6"/>
<path d="M1597.5,765 L1597.5,810 L1627.5,810 L1627.5,765" fill="none" opacity="0.9" stroke="pink" stroke-width="6"/>
<text class="species" transform="rotate(90 1612.5,780)" x="1597.5" y="755">
PTETRD4
</text>
<path d="M1890,528 L1890,457.5 L1558.3125,457.5 M1860,528 L1860,502.5 L1532.8125,502.5" fill="none" opacity="0.9" stroke="pink" stroke-width="6"/>
<path d="M1687.5,768 L1687.5,525 L1857,525 M1717.5,768 L1717.5,555 L1875,555" fill="none" opacity="0.9" stroke="pink" stroke-width="6"/>
<path d="M1687.5,765 L1687.5,810 L1717.5,810 L1717.5,765" fill="none" opacity="0.9" stroke="pink" stroke-width="6"/>
<text class="species" transform="rotate(90 1702.5,780)" x="1687.5" y="755">
PBIAU
</text>
<path d="M2062.5,588 L2062.5,525 L1893,525 M2032.5,588 L2032.5,555 L1875,555" fill="none" opacity="0.9" stroke="pink" stroke-width="6"/>
<path d="M1875,648 L1875,585 L2029.5,585 M1905,648 L1905,615 L2047.5,615" fill="none" opacity="0.9" stroke="pink" stroke-width="6"/>
<path d="M1792.5,768 L1792.5,645 L1872,645 M1822.5,768 L1822.5,675 L1890,675" fill="none" opacity="0.9" stroke="pink" stroke-width="6"/>
<path d="M1792.5,765 L1792.5,810 L1822.5,810 L1822.5,765" fill="none" opacity="0.9" stroke="pink" stroke-width="6"/>
<text class="species" transform="rotate(90 1807.5,780)" x="1792.5" y="755">
PNOVA
</text>
<path d="M1987.5,708 L1987.5,645 L1908,645 M1957.5,708 L1957.5,675 L1890,675" fill="none" opacity="0.9" stroke="pink" stroke-width="6"/>
<path d="M1897.5,768 L1897.5,705 L1954.5,705 M1927.5,768 L1927.5,735 L1972.5,735" fill="none" opacity="0.9" stroke="pink" stroke-width="6"/>
<path d="M1897.5,765 L1897.5,810 L1927.5,810 L1927.5,765" fill="none" opacity="0.9" stroke="pink" stroke-width="6"/>
<text class="species" transform="rotate(90 1912.5,780)" x="1897.5" y="755">
PQUAD
</text>
<path d="M2047.5,768 L2047.5,705 L1990.5,705 M2017.5,768 L2017.5,735 L1972.5,735" fill="none" opacity="0.9" stroke="pink" stroke-width="6"/>
<path d="M2017.5,765 L2017.5,810 L2047.5,810 L2047.5,765" fill="none" opacity="0.9" stroke="pink" stroke-width="6"/>
<text class="species" transform="rotate(90 2032.5,780)" x="2017.5" y="755">
PTRED
</text>
<path d="M2220,648 L2220,585 L2065.5,585 M2190,648 L2190,615 L2047.5,615" fill="none" opacity="0.9" stroke="pink" stroke-width="6"/>
<path d="M2107.5,768 L2107.5,645 L2187,645 M2137.5,768 L2137.5,675 L2205,675" fill="none" opacity="0.9" stroke="pink" stroke-width="6"/>
<path d="M2107.5,765 L2107.5,810 L2137.5,810 L2137.5,765" fill="none" opacity="0.9" stroke="pink" stroke-width="6"/>
<text class="species" transform="rotate(90 2122.5,780)" x="2107.5" y="755">
PPENT
</text>
<path d="M2302.5,708 L2302.5,645 L2223,645 M2272.5,708 L2272.5,675 L2205,675" fill="none" opacity="0.9" stroke="pink" stroke-width="6"/>
<path d="M2212.5,768 L2212.5,705 L2269.5,705 M2242.5,768 L2242.5,735 L2287.5,735" fill="none" opacity="0.9" stroke="pink" stroke-width="6"/>
<path d="M2212.5,765 L2212.5,810 L2242.5,810 L2242.5,765" fill="none" opacity="0.9" stroke="pink" stroke-width="6"/>
<text class="species" transform="rotate(90 2227.5,780)" x="2212.5" y="755">
PPRIMAZ9
</text>
<path d="M2362.5,768 L2362.5,705 L2305.5,705 M2332.5,768 L2332.5,735 L2287.5,735" fill="none" opacity="0.9" stroke="pink" stroke-width="6"/>
<path d="M2332.5,765 L2332.5,810 L2362.5,810 L2362.5,765" fill="none" opacity="0.9" stroke="pink" stroke-width="6"/>
<text class="species" transform="rotate(90 2347.5,780)" x="2332.5" y="755">
PPRIMIR4
</text>
<path d="M417.74414,174 l-6,-6 l12,0 z" fill="rgb(52, 218, 237)" opacity="0.9" stroke="rgb(52, 218, 237)" stroke-width="1"/>
<circle cx="417.74414" cy="180" fill="rgb(52, 218, 237)" opacity="0.9" r="3" stroke="rgb(52, 218, 237)" stroke-width="1"/>
<path d="M527.9883,240 L527.9883,180 L417.74414,180" fill="none" opacity="0.9" stroke="rgb(52, 218, 237)" stroke-width="3"/>
<circle cx="527.9883" cy="240" fill="rgb(52, 218, 237)" opacity="0.9" r="3" stroke="rgb(52, 218, 237)" stroke-width="1"/>
<path d="M390,787.5 L390,240 L527.9883,240" fill="none" opacity="0.9" stroke="rgb(52, 218, 237)" stroke-width="3"/>
<path d="M389.5,787 l0,1 l1,0 l0,-1 z" fill="red" opacity="0.9" stroke="red" stroke-width="3"/>
<text class="gene_0" transform="rotate(90 390,787.5)" x="400" y="787.5">
PGOER_007.PE422
</text>
<path d="M665.97656,300 L665.97656,240 L527.9883,240" fill="none" opacity="0.9" stroke="rgb(52, 218, 237)" stroke-width="3"/>
<circle cx="665.97656" cy="300" fill="rgb(52, 218, 237)" opacity="0.9" r="3" stroke="rgb(52, 218, 237)" stroke-width="1"/>
<path d="M472.5,787.5 L472.5,300 L665.97656,300" fill="none" opacity="0.9" stroke="rgb(52, 218, 237)" stroke-width="3"/>
<path d="M472,787 l0,1 l1,0 l0,-1 z" fill="red" opacity="0.9" stroke="red" stroke-width="3"/>
<text class="gene_0" transform="rotate(90 472.5,787.5)" x="482.5" y="787.5">
PCAUD_0006.PE276
</text>
<path d="M859.4531,360 L859.4531,300 L665.97656,300" fill="none" opacity="0.9" stroke="rgb(52, 218, 237)" stroke-width="3"/>
<circle cx="859.4531" cy="360" fill="rgb(52, 218, 237)" opacity="0.9" r="3" stroke="rgb(52, 218, 237)" stroke-width="1"/>
<path d="M555,787.5 L555,360 L859.4531,360" fill="none" opacity="0.9" stroke="rgb(52, 218, 237)" stroke-width="3"/>
<path d="M554.5,787 l0,1 l1,0 l0,-1 z" fill="red" opacity="0.9" stroke="red" stroke-width="3"/>
<text class="gene_0" transform="rotate(90 555,787.5)" x="565" y="787.5">
PMUL_0001.PE440
</text>
<path d="M1171.4063,412.5 L1171.4063,360 L859.4531,360" fill="none" opacity="0.9" stroke="rgb(52, 218, 237)" stroke-width="3"/>
<path d="M1169.4063,410.5 l0,4 l4,0 l0,-4 z" fill="rgb(52, 218, 237)" opacity="0.9" stroke="rgb(52, 218, 237)" stroke-width="3" transform="rotate(45 1171.4063 412.5)"/>
<path d="M885 795 L 885 780M885 791.25L 881.25 787.5M885 791.25L 888.75 787.5M885 780 Q 1028.2031 536.25 1171.4063 412.5" fill="none" opacity="0.0" stroke="rgb(52, 218, 237)" stroke-dasharray="1, 1" stroke-width="3"/>
<path d="M884.5,794.5 l0,1 l1,0 l0,-1 z" fill="red" opacity="0.9" stroke="red" stroke-width="3"/>
<text class="gene_0" transform="rotate(90 885,795)" x="895" y="795">
PSEXA_090.PE136
</text>
<path d="M1156.4063,427.5 L1156.4063,412.5 L1171.4063,412.5" fill="none" opacity="0.9" stroke="rgb(52, 218, 237)" stroke-width="3"/>
<circle cx="1156.4063" cy="427.5" fill="rgb(52, 218, 237)" opacity="0.9" r="3" stroke="rgb(52, 218, 237)" stroke-width="1"/>
<path d="M795,480 L795,427.5 L1156.4063,427.5" fill="none" opacity="0.9" stroke="rgb(52, 218, 237)" stroke-width="3"/>
<circle cx="795" cy="480" fill="rgb(52, 218, 237)" opacity="0.9" r="3" stroke="rgb(52, 218, 237)" stroke-width="1"/>
<path d="M712.5,525 L712.5,480 L795,480" fill="none" opacity="0.9" stroke="rgb(52, 218, 237)" stroke-width="3"/>
<path d="M709.5,522 l0,6 l6,0 l0,-6 z" fill="rgb(52, 218, 237)" opacity="0.9" stroke="rgb(52, 218, 237)" stroke-width="3"/>
<path d="M712.5,540 L712.5,525 L712.5,525" fill="none" opacity="0.9" stroke="rgb(52, 218, 237)" stroke-width="3"/>
<circle cx="712.5" cy="540" fill="rgb(52, 218, 237)" opacity="0.9" r="3" stroke="rgb(52, 218, 237)" stroke-width="1"/>
<path d="M780,795 L780,540 L712.5,540" fill="none" opacity="0.9" stroke="rgb(52, 218, 237)" stroke-width="3"/>
<path d="M779.5,794.5 l0,1 l1,0 l0,-1 z" fill="red" opacity="0.9" stroke="red" stroke-width="3"/>
<text class="gene_0" transform="rotate(90 780,795)" x="790" y="795">
PSONN_004.PE553
</text>
<path d="M645,795 L645,540 L712.5,540" fill="none" opacity="0.9" stroke="rgb(52, 218, 237)" stroke-width="3"/>
<path d="M644.5,794.5 l0,1 l1,0 l0,-1 z" fill="red" opacity="0.9" stroke="red" stroke-width="3"/>
<text class="gene_0" transform="rotate(90 645,795)" x="655" y="795">
PJENN_0272.PE14
</text>
<path d="M727.5,555 L727.5,525 L712.5,525" fill="none" opacity="0.9" stroke="rgb(52, 218, 237)" stroke-width="3"/>
<circle cx="727.5" cy="555" fill="rgb(52, 218, 237)" opacity="0.9" r="3" stroke="rgb(52, 218, 237)" stroke-width="1"/>
<path d="M660,795 L660,555 L727.5,555" fill="none" opacity="0.9" stroke="rgb(52, 218, 237)" stroke-width="3"/>
<path d="M659.5,794.5 l0,1 l1,0 l0,-1 z" fill="red" opacity="0.9" stroke="red" stroke-width="3"/>
<text class="gene_0" transform="rotate(90 660,795)" x="670" y="795">
PJENN_0120.PE34
</text>
<path d="M765,795 L765,555 L727.5,555" fill="none" opacity="0.9" stroke="rgb(52, 218, 237)" stroke-width="3"/>
<path d="M764.5,794.5 l0,1 l1,0 l0,-1 z" fill="red" opacity="0.9" stroke="red" stroke-width="3"/>
<text class="gene_0" transform="rotate(90 765,795)" x="775" y="795">
PSONN_005.PE577
</text>
<path d="M870,795 L870,480 L795,480" fill="none" opacity="0.9" stroke="rgb(52, 218, 237)" stroke-width="3"/>
<path d="M869.5,794.5 l0,1 l1,0 l0,-1 z" fill="red" opacity="0.9" stroke="red" stroke-width="3"/>
<text class="gene_0" transform="rotate(90 870,795)" x="880" y="795">
PSEXA_006.PE443
</text>
<path d="M1517.8125,465 L1517.8125,427.5 L1156.4063,427.5" fill="none" opacity="0.9" stroke="rgb(52, 218, 237)" stroke-width="3"/>
<path d="M1514.8125,462 l0,6 l6,0 l0,-6 z" fill="rgb(52, 218, 237)" opacity="0.9" stroke="rgb(52, 218, 237)" stroke-width="3"/>
<path d="M1532.8125,480 L1532.8125,465 L1517.8125,465" fill="none" opacity="0.9" stroke="rgb(52, 218, 237)" stroke-width="3"/>
<circle cx="1532.8125" cy="480" fill="rgb(52, 218, 237)" opacity="0.9" r="3" stroke="rgb(52, 218, 237)" stroke-width="1"/>
<path d="M1183.125,532.5 L1183.125,480 L1532.8125,480" fill="none" opacity="0.9" stroke="rgb(52, 218, 237)" stroke-width="3"/>
<circle cx="1183.125" cy="532.5" fill="rgb(52, 218, 237)" opacity="0.9" r="3" stroke="rgb(52, 218, 237)" stroke-width="1"/>
<path d="M1361.25,592.5 L1361.25,532.5 L1183.125,532.5" fill="none" opacity="0.9" stroke="rgb(52, 218, 237)" stroke-width="3"/>
<circle cx="1361.25" cy="592.5" fill="rgb(52, 218, 237)" opacity="0.9" r="3" stroke="rgb(52, 218, 237)" stroke-width="1"/>
<path d="M1477.5,652.5 L1477.5,592.5 L1361.25,592.5" fill="none" opacity="0.9" stroke="rgb(52, 218, 237)" stroke-width="3"/>
<circle cx="1477.5" cy="652.5" fill="rgb(52, 218, 237)" opacity="0.9" r="3" stroke="rgb(52, 218, 237)" stroke-width="1"/>
<path d="M1380,795 L1380,652.5 L1477.5,652.5" fill="none" opacity="0.9" stroke="rgb(52, 218, 237)" stroke-width="3"/>
<path d="M1379.5,794.5 l0,1 l1,0 l0,-1 z" fill="red" opacity="0.9" stroke="red" stroke-width="3"/>
<text class="gene_0" transform="rotate(90 1380,795)" x="1390" y="795">
PTETR32_010.PE486
</text>
<path d="M1560,712.5 L1560,652.5 L1477.5,652.5" fill="none" opacity="0.9" stroke="rgb(52, 218, 237)" stroke-width="3"/>
<circle cx="1560" cy="712.5" fill="rgb(52, 218, 237)" opacity="0.9" r="3" stroke="rgb(52, 218, 237)" stroke-width="1"/>
<path d="M1620,795 L1620,712.5 L1560,712.5" fill="none" opacity="0.9" stroke="rgb(52, 218, 237)" stroke-width="3"/>
<path d="M1619.5,794.5 l0,1 l1,0 l0,-1 z" fill="red" opacity="0.9" stroke="red" stroke-width="3"/>
<text class="gene_0" transform="rotate(90 1620,795)" x="1630" y="795">
PTETRD4_22.PE317
</text>
<path d="M1485,795 L1485,712.5 L1560,712.5" fill="none" opacity="0.9" stroke="rgb(52, 218, 237)" stroke-width="3"/>
<path d="M1484.5,794.5 l0,1 l1,0 l0,-1 z" fill="red" opacity="0.9" stroke="red" stroke-width="3"/>
<text class="gene_0" transform="rotate(90 1485,795)" x="1495" y="795">
PTETR51_22.PE327
</text>
<path d="M1230,652.5 L1230,592.5 L1361.25,592.5" fill="none" opacity="0.9" stroke="rgb(52, 218, 237)" stroke-width="3"/>
<circle cx="1230" cy="652.5" fill="rgb(52, 218, 237)" opacity="0.9" r="3" stroke="rgb(52, 218, 237)" stroke-width="1"/>
<path d="M1305,795 L1305,652.5 L1230,652.5" fill="none" opacity="0.9" stroke="rgb(52, 218, 237)" stroke-width="3"/>
<path d="M1304.5,794.5 l0,1 l1,0 l0,-1 z" fill="red" opacity="0.9" stroke="red" stroke-width="3"/>
<text class="gene_0" transform="rotate(90 1305,795)" x="1315" y="795">
POCTAK8_276972.PE462
</text>
<path d="M1170,795 L1170,652.5 L1230,652.5" fill="none" opacity="0.9" stroke="rgb(52, 218, 237)" stroke-width="3"/>
<path d="M1169.5,794.5 l0,1 l1,0 l0,-1 z" fill="red" opacity="0.9" stroke="red" stroke-width="3"/>
<text class="gene_0" transform="rotate(90 1170,795)" x="1180" y="795">
POCTA138_036.PE333
</text>
<path d="M1020,592.5 L1020,532.5 L1183.125,532.5" fill="none" opacity="0.9" stroke="rgb(52, 218, 237)" stroke-width="3"/>
<circle cx="1020" cy="592.5" fill="rgb(52, 218, 237)" opacity="0.9" r="3" stroke="rgb(52, 218, 237)" stroke-width="1"/>
<path d="M1095,795 L1095,592.5 L1020,592.5" fill="none" opacity="0.9" stroke="rgb(52, 218, 237)" stroke-width="3"/>
<path d="M1094.5,794.5 l0,1 l1,0 l0,-1 z" fill="red" opacity="0.9" stroke="red" stroke-width="3"/>
<text class="gene_0" transform="rotate(90 1095,795)" x="1105" y="795">
PDODE_0014.PE213
</text>
<path d="M960,795 L960,592.5 L1020,592.5" fill="none" opacity="0.9" stroke="rgb(52, 218, 237)" stroke-width="3"/>
<path d="M959.5,794.5 l0,1 l1,0 l0,-1 z" fill="red" opacity="0.9" stroke="red" stroke-width="3"/>
<text class="gene_0" transform="rotate(90 960,795)" x="970" y="795">
PDECA_0151.PE33
</text>
<path d="M1882.5,532.5 L1882.5,480 L1532.8125,480" fill="none" opacity="0.9" stroke="rgb(52, 218, 237)" stroke-width="3"/>
<circle cx="1882.5" cy="532.5" fill="rgb(52, 218, 237)" opacity="0.9" r="3" stroke="rgb(52, 218, 237)" stroke-width="1"/>
<path d="M2055,592.5 L2055,532.5 L1882.5,532.5" fill="none" opacity="0.9" stroke="rgb(52, 218, 237)" stroke-width="3"/>
<circle cx="2055" cy="592.5" fill="rgb(52, 218, 237)" opacity="0.9" r="3" stroke="rgb(52, 218, 237)" stroke-width="1"/>
<path d="M2212.5,652.5 L2212.5,592.5 L2055,592.5" fill="none" opacity="0.9" stroke="rgb(52, 218, 237)" stroke-width="3"/>
<circle cx="2212.5" cy="652.5" fill="rgb(52, 218, 237)" opacity="0.9" r="3" stroke="rgb(52, 218, 237)" stroke-width="1"/>
<path d="M2115,795 L2115,652.5 L2212.5,652.5" fill="none" opacity="0.9" stroke="rgb(52, 218, 237)" stroke-width="3"/>
<path d="M2114.5,794.5 l0,1 l1,0 l0,-1 z" fill="red" opacity="0.9" stroke="red" stroke-width="3"/>
<text class="gene_0" transform="rotate(90 2115,795)" x="2125" y="795">
PPENT_012.PE463
</text>
<path d="M2295,712.5 L2295,652.5 L2212.5,652.5" fill="none" opacity="0.9" stroke="rgb(52, 218, 237)" stroke-width="3"/>
<circle cx="2295" cy="712.5" fill="rgb(52, 218, 237)" opacity="0.9" r="3" stroke="rgb(52, 218, 237)" stroke-width="1"/>
<path d="M2220,795 L2220,712.5 L2295,712.5" fill="none" opacity="0.9" stroke="rgb(52, 218, 237)" stroke-width="3"/>
<path d="M2219.5,794.5 l0,1 l1,0 l0,-1 z" fill="red" opacity="0.9" stroke="red" stroke-width="3"/>
<text class="gene_0" transform="rotate(90 2220,795)" x="2230" y="795">
PPRIMAZ9_010.PE33
</text>
<path d="M2355,795 L2355,712.5 L2295,712.5" fill="none" opacity="0.9" stroke="rgb(52, 218, 237)" stroke-width="3"/>
<path d="M2354.5,794.5 l0,1 l1,0 l0,-1 z" fill="red" opacity="0.9" stroke="red" stroke-width="3"/>
<text class="gene_0" transform="rotate(90 2355,795)" x="2365" y="795">
PPRIMIR4_005.PE411
</text>
<path d="M1882.5,652.5 L1882.5,592.5 L2055,592.5" fill="none" opacity="0.9" stroke="rgb(52, 218, 237)" stroke-width="3"/>
<circle cx="1882.5" cy="652.5" fill="rgb(52, 218, 237)" opacity="0.9" r="3" stroke="rgb(52, 218, 237)" stroke-width="1"/>
<path d="M1800,795 L1800,652.5 L1882.5,652.5" fill="none" opacity="0.9" stroke="rgb(52, 218, 237)" stroke-width="3"/>
<path d="M1799.5,794.5 l0,1 l1,0 l0,-1 z" fill="red" opacity="0.9" stroke="red" stroke-width="3"/>
<text class="gene_0" transform="rotate(90 1800,795)" x="1810" y="795">
PNOVA_0345.PE14
</text>
<path d="M1980,712.5 L1980,652.5 L1882.5,652.5" fill="none" opacity="0.9" stroke="rgb(52, 218, 237)" stroke-width="3"/>
<circle cx="1980" cy="712.5" fill="rgb(52, 218, 237)" opacity="0.9" r="3" stroke="rgb(52, 218, 237)" stroke-width="1"/>
<path d="M1905,795 L1905,712.5 L1980,712.5" fill="none" opacity="0.9" stroke="rgb(52, 218, 237)" stroke-width="3"/>
<path d="M1904.5,794.5 l0,1 l1,0 l0,-1 z" fill="red" opacity="0.9" stroke="red" stroke-width="3"/>
<text class="gene_0" transform="rotate(90 1905,795)" x="1915" y="795">
PQUAD_0377.PE11
</text>
<path d="M2040,795 L2040,712.5 L1980,712.5" fill="none" opacity="0.9" stroke="rgb(52, 218, 237)" stroke-width="3"/>
<path d="M2039.5,794.5 l0,1 l1,0 l0,-1 z" fill="red" opacity="0.9" stroke="red" stroke-width="3"/>
<text class="gene_0" transform="rotate(90 2040,795)" x="2050" y="795">
PTRED_129445.PE438
</text>
<path d="M1695,795 L1695,532.5 L1882.5,532.5" fill="none" opacity="0.9" stroke="rgb(52, 218, 237)" stroke-width="3"/>
<path d="M1694.5,794.5 l0,1 l1,0 l0,-1 z" fill="red" opacity="0.9" stroke="red" stroke-width="3"/>
<text class="gene_0" transform="rotate(90 1695,795)" x="1705" y="795">
PBIAU_0002.PE476
</text>
<path d="M1517.8125,495 L1517.8125,465 L1517.8125,465" fill="none" opacity="0.9" stroke="rgb(52, 218, 237)" stroke-width="3"/>
<circle cx="1517.8125" cy="495" fill="rgb(52, 218, 237)" opacity="0.9" r="3" stroke="rgb(52, 218, 237)" stroke-width="1"/>
<path d="M1198.125,547.5 L1198.125,495 L1517.8125,495" fill="none" opacity="0.9" stroke="rgb(52, 218, 237)" stroke-width="3"/>
<circle cx="1198.125" cy="547.5" fill="rgb(52, 218, 237)" opacity="0.9" r="3" stroke="rgb(52, 218, 237)" stroke-width="1"/>
<path d="M1035,607.5 L1035,547.5 L1198.125,547.5" fill="none" opacity="0.9" stroke="rgb(52, 218, 237)" stroke-width="3"/>
<circle cx="1035" cy="607.5" fill="rgb(52, 218, 237)" opacity="0.9" r="3" stroke="rgb(52, 218, 237)" stroke-width="1"/>
<path d="M975,795 L975,607.5 L1035,607.5" fill="none" opacity="0.9" stroke="rgb(52, 218, 237)" stroke-width="3"/>
<path d="M974.5,794.5 l0,1 l1,0 l0,-1 z" fill="red" opacity="0.9" stroke="red" stroke-width="3"/>
<text class="gene_0" transform="rotate(90 975,795)" x="985" y="795">
PDECA_0006.PE32
</text>
<path d="M1080,795 L1080,607.5 L1035,607.5" fill="none" opacity="0.9" stroke="rgb(52, 218, 237)" stroke-width="3"/>
<path d="M1079.5,794.5 l0,1 l1,0 l0,-1 z" fill="red" opacity="0.9" stroke="red" stroke-width="3"/>
<text class="gene_0" transform="rotate(90 1080,795)" x="1090" y="795">
PDODE_0002.PE40
</text>
<path d="M1346.25,607.5 L1346.25,547.5 L1198.125,547.5" fill="none" opacity="0.9" stroke="rgb(52, 218, 237)" stroke-width="3"/>
<circle cx="1346.25" cy="607.5" fill="rgb(52, 218, 237)" opacity="0.9" r="3" stroke="rgb(52, 218, 237)" stroke-width="1"/>
<path d="M1245,667.5 L1245,607.5 L1346.25,607.5" fill="none" opacity="0.9" stroke="rgb(52, 218, 237)" stroke-width="3"/>
<circle cx="1245" cy="667.5" fill="rgb(52, 218, 237)" opacity="0.9" r="3" stroke="rgb(52, 218, 237)" stroke-width="1"/>
<path d="M1290,795 L1290,667.5 L1245,667.5" fill="none" opacity="0.9" stroke="rgb(52, 218, 237)" stroke-width="3"/>
<path d="M1289.5,794.5 l0,1 l1,0 l0,-1 z" fill="red" opacity="0.9" stroke="red" stroke-width="3"/>
<text class="gene_0" transform="rotate(90 1290,795)" x="1300" y="795">
POCTAK8_277061.PE26
</text>
<path d="M1185,795 L1185,667.5 L1245,667.5" fill="none" opacity="0.9" stroke="rgb(52, 218, 237)" stroke-width="3"/>
<path d="M1184.5,794.5 l0,1 l1,0 l0,-1 z" fill="red" opacity="0.9" stroke="red" stroke-width="3"/>
<text class="gene_0" transform="rotate(90 1185,795)" x="1195" y="795">
POCTA138_005.PE519
</text>
<path d="M1462.5,667.5 L1462.5,607.5 L1346.25,607.5" fill="none" opacity="0.9" stroke="rgb(52, 218, 237)" stroke-width="3"/>
<circle cx="1462.5" cy="667.5" fill="rgb(52, 218, 237)" opacity="0.9" r="3" stroke="rgb(52, 218, 237)" stroke-width="1"/>
<path d="M1395,795 L1395,667.5 L1462.5,667.5" fill="none" opacity="0.9" stroke="rgb(52, 218, 237)" stroke-width="3"/>
<path d="M1394.5,794.5 l0,1 l1,0 l0,-1 z" fill="red" opacity="0.9" stroke="red" stroke-width="3"/>
<text class="gene_0" transform="rotate(90 1395,795)" x="1405" y="795">
PTETR32_007.PE521
</text>
<path d="M1545,727.5 L1545,667.5 L1462.5,667.5" fill="none" opacity="0.9" stroke="rgb(52, 218, 237)" stroke-width="3"/>
<circle cx="1545" cy="727.5" fill="rgb(52, 218, 237)" opacity="0.9" r="3" stroke="rgb(52, 218, 237)" stroke-width="1"/>
<path d="M1500,795 L1500,727.5 L1545,727.5" fill="none" opacity="0.9" stroke="rgb(52, 218, 237)" stroke-width="3"/>
<path d="M1499.5,794.5 l0,1 l1,0 l0,-1 z" fill="red" opacity="0.9" stroke="red" stroke-width="3"/>
<text class="gene_0" transform="rotate(90 1500,795)" x="1510" y="795">
PTETR51_2.PE515
</text>
<path d="M1605,795 L1605,727.5 L1545,727.5" fill="none" opacity="0.9" stroke="rgb(52, 218, 237)" stroke-width="3"/>
<path d="M1604.5,794.5 l0,1 l1,0 l0,-1 z" fill="red" opacity="0.9" stroke="red" stroke-width="3"/>
<text class="gene_0" transform="rotate(90 1605,795)" x="1615" y="795">
PTETRD4_2.PE508
</text>
<path d="M1867.5,547.5 L1867.5,495 L1517.8125,495" fill="none" opacity="0.9" stroke="rgb(52, 218, 237)" stroke-width="3"/>
<circle cx="1867.5" cy="547.5" fill="rgb(52, 218, 237)" opacity="0.9" r="3" stroke="rgb(52, 218, 237)" stroke-width="1"/>
<path d="M1710,795 L1710,547.5 L1867.5,547.5" fill="none" opacity="0.9" stroke="rgb(52, 218, 237)" stroke-width="3"/>
<path d="M1709.5,794.5 l0,1 l1,0 l0,-1 z" fill="red" opacity="0.9" stroke="red" stroke-width="3"/>
<text class="gene_0" transform="rotate(90 1710,795)" x="1720" y="795">
PBIAU_0014.PE281
</text>
<path d="M2040,607.5 L2040,547.5 L1867.5,547.5" fill="none" opacity="0.9" stroke="rgb(52, 218, 237)" stroke-width="3"/>
<circle cx="2040" cy="607.5" fill="rgb(52, 218, 237)" opacity="0.9" r="3" stroke="rgb(52, 218, 237)" stroke-width="1"/>
<path d="M2197.5,667.5 L2197.5,607.5 L2040,607.5" fill="none" opacity="0.9" stroke="rgb(52, 218, 237)" stroke-width="3"/>
<circle cx="2197.5" cy="667.5" fill="rgb(52, 218, 237)" opacity="0.9" r="3" stroke="rgb(52, 218, 237)" stroke-width="1"/>
<path d="M2130,795 L2130,667.5 L2197.5,667.5" fill="none" opacity="0.9" stroke="rgb(52, 218, 237)" stroke-width="3"/>
<path d="M2129.5,794.5 l0,1 l1,0 l0,-1 z" fill="red" opacity="0.9" stroke="red" stroke-width="3"/>
<text class="gene_0" transform="rotate(90 2130,795)" x="2140" y="795">
PPENT_003.PE526
</text>
<path d="M2280,727.5 L2280,667.5 L2197.5,667.5" fill="none" opacity="0.9" stroke="rgb(52, 218, 237)" stroke-width="3"/>
<circle cx="2280" cy="727.5" fill="rgb(52, 218, 237)" opacity="0.9" r="3" stroke="rgb(52, 218, 237)" stroke-width="1"/>
<path d="M2235,795 L2235,727.5 L2280,727.5" fill="none" opacity="0.9" stroke="rgb(52, 218, 237)" stroke-width="3"/>
<path d="M2234.5,794.5 l0,1 l1,0 l0,-1 z" fill="red" opacity="0.9" stroke="red" stroke-width="3"/>
<text class="gene_0" transform="rotate(90 2235,795)" x="2245" y="795">
PPRIMAZ9_021.PE361
</text>
<path d="M2340,795 L2340,727.5 L2280,727.5" fill="none" opacity="0.9" stroke="rgb(52, 218, 237)" stroke-width="3"/>
<path d="M2339.5,794.5 l0,1 l1,0 l0,-1 z" fill="red" opacity="0.9" stroke="red" stroke-width="3"/>
<text class="gene_0" transform="rotate(90 2340,795)" x="2350" y="795">
PPRIMIR4_001.PE32
</text>
<path d="M1897.5,667.5 L1897.5,607.5 L2040,607.5" fill="none" opacity="0.9" stroke="rgb(52, 218, 237)" stroke-width="3"/>
<circle cx="1897.5" cy="667.5" fill="rgb(52, 218, 237)" opacity="0.9" r="3" stroke="rgb(52, 218, 237)" stroke-width="1"/>
<path d="M1965,727.5 L1965,667.5 L1897.5,667.5" fill="none" opacity="0.9" stroke="rgb(52, 218, 237)" stroke-width="3"/>
<circle cx="1965" cy="727.5" fill="rgb(52, 218, 237)" opacity="0.9" r="3" stroke="rgb(52, 218, 237)" stroke-width="1"/>
<path d="M2025,795 L2025,727.5 L1965,727.5" fill="none" opacity="0.9" stroke="rgb(52, 218, 237)" stroke-width="3"/>
<path d="M2024.5,794.5 l0,1 l1,0 l0,-1 z" fill="red" opacity="0.9" stroke="red" stroke-width="3"/>
<text class="gene_0" transform="rotate(90 2025,795)" x="2035" y="795">
PTRED_129141.PE35
</text>
<path d="M1920,795 L1920,727.5 L1965,727.5" fill="none" opacity="0.9" stroke="rgb(52, 218, 237)" stroke-width="3"/>
<path d="M1919.5,794.5 l0,1 l1,0 l0,-1 z" fill="red" opacity="0.9" stroke="red" stroke-width="3"/>
<text class="gene_0" transform="rotate(90 1920,795)" x="1930" y="795">
PQUAD_0028.PE198
</text>
<path d="M1815,795 L1815,667.5 L1897.5,667.5" fill="none" opacity="0.9" stroke="rgb(52, 218, 237)" stroke-width="3"/>
<path d="M1814.5,794.5 l0,1 l1,0 l0,-1 z" fill="red" opacity="0.9" stroke="red" stroke-width="3"/>
<text class="gene_0" transform="rotate(90 1815,795)" x="1825" y="795">
PNOVA_0073.PE57
</text>
<path d="M307.5,787.5 L307.5,180 L417.74414,180" fill="none" opacity="0.9" stroke="rgb(52, 218, 237)" stroke-width="3"/>
<path d="M307,787 l0,1 l1,0 l0,-1 z" fill="red" opacity="0.9" stroke="red" stroke-width="3"/>
<text class="gene_0" transform="rotate(90 307.5,787.5)" x="317.5" y="787.5">
PPOLY_025.PE308
</text>
<path d="M877.5 780 L 877.5 765M877.5 776.25L 873.75 772.5M877.5 776.25L 881.25 772.5M877.5 765 Q 1020.7031 532.5 1163.9063 420" fill="none" opacity="1" stroke="red" stroke-width="3"/>
<text class="rouge" x="1020.7031" y="520">
12
</text>
<path d="M877.5 780 L 877.5 765M877.5 776.25L 873.75 772.5M877.5 776.25L 881.25 772.5M877.5 765 Q 1342.5 712.5 1807.5 780" fill="none" opacity="0.08" stroke="red" stroke-width="3"/>
<text class="rouge" x="1342.5" y="710">
1
</text>
<path d="M877.5 780 L 877.5 765M877.5 776.25L 873.75 772.5M877.5 776.25L 881.25 772.5M877.5 765 Q 1612.5 712.5 2347.5 780" fill="none" opacity="0.08" stroke="red" stroke-width="3"/>
<text class="rouge" x="1612.5" y="710">
1
</text>
<path d="M877.5 780 L 877.5 765M877.5 776.25L 873.75 772.5M877.5 776.25L 881.25 772.5M877.5 765 Q 1205.1563 562.5 1532.8125 480" fill="none" opacity="0.16" stroke="red" stroke-width="3"/>
<text class="rouge" x="1205.1563" y="560">
2
</text>
<path d="M877.5 780 L 877.5 765M877.5 776.25L 873.75 772.5M877.5 776.25L 881.25 772.5M877.5 765 Q 1034.0625 592.5 1190.625 540" fill="none" opacity="0.08" stroke="red" stroke-width="3"/>
<text class="rouge" x="1034.0625" y="590">
1
</text>
</g>
</svg>