<?xml version="1.0" standalone="no" ?>
<!DOCTYPE svg PUBLIC "-//W3C//DTD SVG 1.1//EN" "http://www.w3.org/Graphics/SVG/1.1/DTD/svg11.dtd">
<svg width="2395px" height="3535px" xmlns="http://www.w3.org/2000/svg" version="1.1" >
	<polygon points="50,2600 50,2875 130,2875 130,3275 240,3275 240,3475 350,3475 350,3525 460,3525 1495,3525 1495,3475 460,3475 410,3475 410,3475 410,3425 410,3375 460,3375 460,3425 570,3425 1495,3425 1495,3375 570,3375 520,3375 520,3375 520,3325 520,3325 570,3325 1495,3325 1495,3275 570,3275 460,3275 460,3325 350,3325 350,3425 300,3425 300,3275 300,3225 300,2975 350,2975 350,3175 460,3175 460,3225 570,3225 1495,3225 1495,3175 570,3175 520,3175 520,3175 520,3125 520,3075 570,3075 570,3125 680,3125 1495,3125 1495,3075 680,3075 630,3075 630,3075 630,3025 630,3025 680,3025 1495,3025 1495,2975 680,2975 570,2975 570,3025 460,3025 460,3125 410,3125 410,2975 410,2925 410,2925 460,2925 1495,2925 1495,2875 460,2875 350,2875 350,2925 240,2925 240,3225 190,3225 190,2875 190,2825 190,2750 240,2750 240,2825 405,2825 1495,2825 1495,2750 405,2750 330,2750 330,2750 330,2675 330,2675 405,2675 1495,2675 1495,2600 405,2600 240,2600 240,2675 130,2675 130,2825 80,2825 80,2600 80,2550 80,250 130,250 130,450 240,450 240,975 350,975 350,2500 460,2500 460,2550 570,2550 1495,2550 1495,2500 570,2500 520,2500 520,2500 520,2450 520,1175 570,1175 570,1275 680,1275 680,1475 790,1475 790,1575 900,1575 900,1800 1010,1800 1010,2200 1145,2200 1145,2400 1225,2400 1225,2450 1305,2450 1495,2450 1495,2400 1305,2400 1255,2400 1255,2400 1255,2350 1255,2300 1305,2300 1305,2350 1385,2350 1495,2350 1495,2300 1385,2300 1335,2300 1335,2300 1335,2250 1335,2250 1385,2250 1495,2250 1495,2200 1385,2200 1305,2200 1305,2250 1225,2250 1225,2350 1175,2350 1175,2200 1175,2150 1175,1900 1225,1900 1225,2100 1305,2100 1305,2150 1385,2150 1495,2150 1495,2100 1385,2100 1335,2100 1335,2100 1335,2050 1335,2000 1385,2000 1385,2050 1465,2050 1495,2050 1495,2000 1465,2000 1415,2000 1415,2000 1415,1950 1415,1950 1465,1950 1495,1950 1495,1900 1465,1900 1385,1900 1385,1950 1305,1950 1305,2050 1255,2050 1255,1900 1255,1850 1255,1850 1305,1850 1495,1850 1495,1800 1305,1800 1225,1800 1225,1850 1145,1850 1145,2150 1070,2150 1070,1800 1070,1725 1070,1675 1145,1675 1145,1725 1225,1725 1495,1725 1495,1675 1225,1675 1175,1675 1175,1675 1175,1625 1175,1625 1225,1625 1495,1625 1495,1575 1225,1575 1145,1575 1145,1625 1010,1625 1010,1725 960,1725 960,1575 960,1525 960,1525 1010,1525 1495,1525 1495,1475 1010,1475 900,1475 900,1525 850,1525 850,1475 850,1425 850,1375 900,1375 900,1425 1010,1425 1495,1425 1495,1375 1010,1375 960,1375 960,1375 960,1325 960,1325 1010,1325 1495,1325 1495,1275 1010,1275 900,1275 900,1325 790,1325 790,1425 740,1425 740,1275 740,1225 740,1225 790,1225 1495,1225 1495,1175 790,1175 680,1175 680,1225 630,1225 630,1175 630,1125 630,1075 680,1075 680,1125 790,1125 1495,1125 1495,1075 790,1075 740,1075 740,1075 740,1025 740,1025 790,1025 1495,1025 1495,975 790,975 680,975 680,1025 570,1025 570,1125 460,1125 460,2450 410,2450 410,975 410,925 410,550 460,550 460,750 570,750 570,875 680,875 680,925 815,925 1495,925 1495,875 815,875 740,875 740,875 740,800 740,800 815,800 1495,800 1495,750 815,750 680,750 680,800 630,800 630,750 630,700 630,650 680,650 680,700 790,700 1495,700 1495,650 790,650 740,650 740,650 740,600 740,600 790,600 1495,600 1495,550 790,550 680,550 680,600 570,600 570,700 520,700 520,550 520,500 520,500 570,500 1495,500 1495,450 570,450 460,450 460,500 350,500 350,925 300,925 300,450 300,400 300,350 350,350 350,400 460,400 1495,400 1495,350 460,350 410,350 410,350 410,300 410,300 460,300 1495,300 1495,250 460,250 350,250 350,300 240,300 240,400 190,400 190,250 190,200 190,150 240,150 240,200 350,200 1495,200 1495,150 350,150 300,150 300,150 300,100 300,100 350,100 1495,100 1495,50 350,50 240,50 240,100 130,100 130,200 50,200 50,2550 " fill="rgb(255,255,255)" stroke-width="10" stroke="rgb(120,120,120)" />
	<text x="1430" y="3457" fill="rgb(0,0,0)" font-size="24" font-family="Verdana" >BCUMA</text>
	<text x="1430" y="3357" fill="rgb(0,0,0)" font-size="24" font-family="Verdana" >BKOCA</text>
	<text x="1430" y="3257" fill="rgb(0,0,0)" font-size="24" font-family="Verdana" >BLAFE</text>
	<text x="1430" y="3157" fill="rgb(0,0,0)" font-size="24" font-family="Verdana" >BPSPA</text>
	<text x="1430" y="3057" fill="rgb(0,0,0)" font-size="24" font-family="Verdana" >BSPPA</text>
	<text x="1430" y="2957" fill="rgb(0,0,0)" font-size="24" font-family="Verdana" >BSPPS</text>
	<text x="1430" y="2857" fill="rgb(0,0,0)" font-size="24" font-family="Verdana" >BPSTX</text>
	<text x="1430" y="2732" fill="rgb(0,0,0)" font-size="24" font-family="Verdana" >BCURT</text>
	<text x="1430" y="2582" fill="rgb(0,0,0)" font-size="24" font-family="Verdana" >BCURV</text>
	<text x="1144" y="2482" fill="rgb(0,0,0)" font-size="24" font-family="Verdana" >Escherichia_coli_K12_MG1655</text>
	<text x="1430" y="2382" fill="rgb(0,0,0)" font-size="24" font-family="Verdana" >ECUMA</text>
	<text x="1430" y="2282" fill="rgb(0,0,0)" font-size="24" font-family="Verdana" >EKOCA</text>
	<text x="1430" y="2182" fill="rgb(0,0,0)" font-size="24" font-family="Verdana" >ELAFE</text>
	<text x="1430" y="2082" fill="rgb(0,0,0)" font-size="24" font-family="Verdana" >EPSPA</text>
	<text x="1430" y="1982" fill="rgb(0,0,0)" font-size="24" font-family="Verdana" >ESPPA</text>
	<text x="1430" y="1882" fill="rgb(0,0,0)" font-size="24" font-family="Verdana" >ESPPS</text>
	<text x="1430" y="1782" fill="rgb(0,0,0)" font-size="24" font-family="Verdana" >EPSTX</text>
	<text x="1430" y="1657" fill="rgb(0,0,0)" font-size="24" font-family="Verdana" >ECURT</text>
	<text x="1430" y="1557" fill="rgb(0,0,0)" font-size="24" font-family="Verdana" >ECURV</text>
	<text x="1430" y="1457" fill="rgb(0,0,0)" font-size="24" font-family="Verdana" >EwAmC</text>
	<text x="1430" y="1357" fill="rgb(0,0,0)" font-size="24" font-family="Verdana" >EwApS</text>
	<text x="1430" y="1257" fill="rgb(0,0,0)" font-size="24" font-family="Verdana" >EwDaI</text>
	<text x="1430" y="1157" fill="rgb(0,0,0)" font-size="24" font-family="Verdana" >EwBiE</text>
	<text x="1157" y="1057" fill="rgb(0,0,0)" font-size="24" font-family="Verdana" >Pantoea_gaviniae_DSM_22758</text>
	<text x="1183" y="957" fill="rgb(0,0,0)" font-size="24" font-family="Verdana" >Pantoea_calida_DSM_22759</text>
	<text x="1430" y="857" fill="rgb(0,0,0)" font-size="24" font-family="Verdana" >HCURT</text>
	<text x="1430" y="732" fill="rgb(0,0,0)" font-size="24" font-family="Verdana" >HCURV</text>
	<text x="1170" y="632" fill="rgb(0,0,0)" font-size="24" font-family="Verdana" >Hamiltonella_defensa_ZA17</text>
	<text x="1183" y="532" fill="rgb(0,0,0)" font-size="24" font-family="Verdana" >Hamiltonella_defensa_5AT</text>
	<text x="1235" y="432" fill="rgb(0,0,0)" font-size="24" font-family="Verdana" >Yersinia_pestis_CO92</text>
	<text x="1183" y="332" fill="rgb(0,0,0)" font-size="24" font-family="Verdana" >Sodalis_praecaptivus_HS1</text>
	<text x="1170" y="232" fill="rgb(0,0,0)" font-size="24" font-family="Verdana" >Sodalis_pierantonius_SOPE</text>
	<text x="1118" y="132" fill="rgb(0,0,0)" font-size="24" font-family="Verdana" >Photorhabdus_luminescens_TTO1</text>
	<text x="1053" y="32" fill="rgb(0,0,0)" font-size="24" font-family="Verdana" >Photorhabdus_asymbiotica_ATCC43949</text>
	<polygon points="155,225 149.045,222.061 148.09,215.489 143.455,220.245 136.91,219.122 140,225 136.91,230.878 143.455,229.755 148.09,234.511 149.045,227.939 155,225 " fill="rgb(255,255,255)" stroke-width="3.125" stroke="rgb(65,170,190)" />
	<line x1="160" y1="225" x2="160" y2="425" stroke-width="3" stroke="rgb(65,170,190)" />
	<line x1="160" y1="425" x2="270" y2="425" stroke-width="3" stroke="rgb(65,170,190)" />
	<line x1="270" y1="425" x2="270" y2="950" stroke-width="3" stroke="rgb(65,170,190)" />
	<line x1="270" y1="950" x2="380" y2="950" stroke-width="3" stroke="rgb(65,170,190)" />
	<line x1="380" y1="950" x2="380" y2="2475" stroke-width="3" stroke="rgb(65,170,190)" />
	<line x1="380" y1="2475" x2="490" y2="2475" stroke-width="3" stroke="rgb(65,170,190)" />
	<line x1="490" y1="2475" x2="490" y2="2525" stroke-width="3" stroke="rgb(65,170,190)" />
	<line x1="490" y1="2525" x2="1495" y2="2525" stroke-width="3" stroke="rgb(65,170,190)" />
	<text x="1520" y="2525" fill="rgb(65,170,190)" font-size="18" font-family="Verdana" >Escherichia_coli_K12_MG1655</text>
	<line x1="490" y1="2475" x2="490" y2="1150" stroke-width="3" stroke="rgb(65,170,190)" />
	<line x1="490" y1="1150" x2="600" y2="1150" stroke-width="3" stroke="rgb(65,170,190)" />
	<line x1="600" y1="1150" x2="600" y2="1250" stroke-width="3" stroke="rgb(65,170,190)" />
	<line x1="600" y1="1250" x2="710" y2="1250" stroke-width="3" stroke="rgb(65,170,190)" />
	<line x1="710" y1="1250" x2="710" y2="1450" stroke-width="3" stroke="rgb(65,170,190)" />
	<line x1="710" y1="1450" x2="820" y2="1450" stroke-width="3" stroke="rgb(65,170,190)" />
	<line x1="820" y1="1450" x2="820" y2="1550" stroke-width="3" stroke="rgb(65,170,190)" />
	<line x1="820" y1="1550" x2="930" y2="1550" stroke-width="3" stroke="rgb(65,170,190)" />
	<line x1="930" y1="1550" x2="930" y2="1775" stroke-width="3" stroke="rgb(65,170,190)" />
	<line x1="930" y1="1775" x2="1025" y2="1775" stroke-width="3" stroke="rgb(65,170,190)" />
	<line x1="1025" y1="1775" x2="1025" y2="1750" stroke-width="3" stroke="rgb(65,170,190)" />
	<line x1="1025" y1="1750" x2="1040" y2="1750" stroke-width="3" stroke="rgb(65,170,190)" />
	<line x1="1046.25" y1="1743.75" x2="1033.75" y2="1756.25" stroke-width="4.16667" stroke="rgb(65,170,190)" />
	<line x1="1046.25" y1="1756.25" x2="1033.75" y2="1743.75" stroke-width="4.16667" stroke="rgb(65,170,190)" />
	<path d="M 1025 1775 Q 585 2212.5 145 2850" stroke-dasharray="4" fill="transparent" stroke-width="0.7" stroke="rgb(65,170,190)" />
	<line x1="145" y1="2850" x2="160" y2="2850" stroke-width="0.7" stroke="rgb(65,170,190)" />
	<line x1="148.75" y1="2845" x2="153.75" y2="2850" stroke-width="0.7" stroke="rgb(65,170,190)" />
	<line x1="148.75" y1="2855" x2="153.75" y2="2850" stroke-width="0.7" stroke="rgb(65,170,190)" />
	<line x1="160" y1="2850" x2="160" y2="3250" stroke-width="3" stroke="rgb(65,170,190)" />
	<line x1="160" y1="3250" x2="270" y2="3250" stroke-width="3" stroke="rgb(65,170,190)" />
	<line x1="270" y1="3250" x2="270" y2="3450" stroke-width="3" stroke="rgb(65,170,190)" />
	<line x1="270" y1="3450" x2="380" y2="3450" stroke-width="3" stroke="rgb(65,170,190)" />
	<line x1="380" y1="3450" x2="380" y2="3500" stroke-width="3" stroke="rgb(65,170,190)" />
	<line x1="380" y1="3500" x2="1495" y2="3500" stroke-width="3" stroke="rgb(65,170,190)" />
	<text x="1520" y="3500" fill="rgb(65,170,190)" font-size="18" font-family="Verdana" >ECUMA</text>
	<line x1="380" y1="3450" x2="380" y2="3350" stroke-width="3" stroke="rgb(65,170,190)" />
	<line x1="380" y1="3350" x2="490" y2="3350" stroke-width="3" stroke="rgb(65,170,190)" />
	<line x1="490" y1="3350" x2="490" y2="3400" stroke-width="3" stroke="rgb(65,170,190)" />
	<line x1="490" y1="3400" x2="1495" y2="3400" stroke-width="3" stroke="rgb(65,170,190)" />
	<text x="1520" y="3400" fill="rgb(65,170,190)" font-size="18" font-family="Verdana" >EKOCA</text>
	<line x1="490" y1="3350" x2="490" y2="3300" stroke-width="3" stroke="rgb(65,170,190)" />
	<line x1="490" y1="3300" x2="1495" y2="3300" stroke-width="3" stroke="rgb(65,170,190)" />
	<text x="1520" y="3300" fill="rgb(65,170,190)" font-size="18" font-family="Verdana" >ELAFE</text>
	<circle cx="490" cy="3350" r="4.16667" fill="rgb(65,170,190)" stroke-width="3" stroke="rgb(65,170,190)" />
	<circle cx="380" cy="3450" r="4.16667" fill="rgb(65,170,190)" stroke-width="3" stroke="rgb(65,170,190)" />
	<line x1="270" y1="3250" x2="270" y2="2950" stroke-width="3" stroke="rgb(65,170,190)" />
	<line x1="270" y1="2950" x2="380" y2="2950" stroke-width="3" stroke="rgb(65,170,190)" />
	<line x1="380" y1="2950" x2="380" y2="3150" stroke-width="3" stroke="rgb(65,170,190)" />
	<line x1="380" y1="3150" x2="490" y2="3150" stroke-width="3" stroke="rgb(65,170,190)" />
	<line x1="490" y1="3150" x2="490" y2="3200" stroke-width="3" stroke="rgb(65,170,190)" />
	<line x1="490" y1="3200" x2="1495" y2="3200" stroke-width="3" stroke="rgb(65,170,190)" />
	<text x="1520" y="3200" fill="rgb(65,170,190)" font-size="18" font-family="Verdana" >EPSPA</text>
	<line x1="490" y1="3150" x2="490" y2="3050" stroke-width="3" stroke="rgb(65,170,190)" />
	<line x1="490" y1="3050" x2="600" y2="3050" stroke-width="3" stroke="rgb(65,170,190)" />
	<line x1="600" y1="3050" x2="600" y2="3100" stroke-width="3" stroke="rgb(65,170,190)" />
	<line x1="600" y1="3100" x2="1495" y2="3100" stroke-width="3" stroke="rgb(65,170,190)" />
	<text x="1520" y="3100" fill="rgb(65,170,190)" font-size="18" font-family="Verdana" >ESPPA</text>
	<line x1="600" y1="3050" x2="600" y2="3000" stroke-width="3" stroke="rgb(65,170,190)" />
	<line x1="600" y1="3000" x2="1495" y2="3000" stroke-width="3" stroke="rgb(65,170,190)" />
	<text x="1520" y="3000" fill="rgb(65,170,190)" font-size="18" font-family="Verdana" >ESPPS</text>
	<circle cx="600" cy="3050" r="4.16667" fill="rgb(65,170,190)" stroke-width="3" stroke="rgb(65,170,190)" />
	<circle cx="490" cy="3150" r="4.16667" fill="rgb(65,170,190)" stroke-width="3" stroke="rgb(65,170,190)" />
	<line x1="380" y1="2950" x2="380" y2="2900" stroke-width="3" stroke="rgb(65,170,190)" />
	<line x1="380" y1="2900" x2="1495" y2="2900" stroke-width="3" stroke="rgb(65,170,190)" />
	<text x="1520" y="2900" fill="rgb(65,170,190)" font-size="18" font-family="Verdana" >EPSTX</text>
	<circle cx="380" cy="2950" r="4.16667" fill="rgb(65,170,190)" stroke-width="3" stroke="rgb(65,170,190)" />
	<circle cx="270" cy="3250" r="4.16667" fill="rgb(65,170,190)" stroke-width="3" stroke="rgb(65,170,190)" />
	<line x1="160" y1="2850" x2="160" y2="2700" stroke-width="3" stroke="rgb(65,170,190)" />
	<line x1="160" y1="2700" x2="270" y2="2700" stroke-width="3" stroke="rgb(65,170,190)" />
	<line x1="270" y1="2700" x2="270" y2="2775" stroke-width="3" stroke="rgb(65,170,190)" />
	<line x1="270" y1="2775" x2="1495" y2="2775" stroke-width="3" stroke="rgb(65,170,190)" />
	<text x="1520" y="2775" fill="rgb(65,170,190)" font-size="18" font-family="Verdana" >ECURT</text>
	<line x1="270" y1="2700" x2="270" y2="2625" stroke-width="3" stroke="rgb(65,170,190)" />
	<line x1="270" y1="2625" x2="1495" y2="2625" stroke-width="3" stroke="rgb(65,170,190)" />
	<text x="1520" y="2625" fill="rgb(65,170,190)" font-size="18" font-family="Verdana" >ECURV</text>
	<circle cx="270" cy="2700" r="4.16667" fill="rgb(65,170,190)" stroke-width="3" stroke="rgb(65,170,190)" />
	<circle cx="160" cy="2850" r="4.16667" fill="rgb(65,170,190)" stroke-width="3" stroke="rgb(65,170,190)" />
	<line x1="1046.25" y1="1743.75" x2="1033.75" y2="1756.25" stroke-width="4.16667" stroke="rgb(65,170,190)" />
	<line x1="1046.25" y1="1756.25" x2="1033.75" y2="1743.75" stroke-width="4.16667" stroke="rgb(65,170,190)" />
	<line x1="1025" y1="1762.5" x2="1012.5" y2="1775" stroke-width="2.77778" stroke="rgb(65,170,190)" />
	<line x1="1037.5" y1="1775" x2="1025" y2="1762.5" stroke-width="2.77778" stroke="rgb(65,170,190)" />
	<line x1="1037.5" y1="1775" x2="1025" y2="1787.5" stroke-width="2.77778" stroke="rgb(65,170,190)" />
	<line x1="1025" y1="1787.5" x2="1012.5" y2="1775" stroke-width="2.77778" stroke="rgb(65,170,190)" />
	<line x1="930" y1="1550" x2="930" y2="1500" stroke-width="3" stroke="rgb(65,170,190)" />
	<line x1="930" y1="1500" x2="1495" y2="1500" stroke-width="3" stroke="rgb(65,170,190)" />
	<text x="1520" y="1500" fill="rgb(65,170,190)" font-size="18" font-family="Verdana" >EwAmC</text>
	<circle cx="930" cy="1550" r="4.16667" fill="rgb(65,170,190)" stroke-width="3" stroke="rgb(65,170,190)" />
	<line x1="820" y1="1450" x2="820" y2="1350" stroke-width="3" stroke="rgb(65,170,190)" />
	<line x1="820" y1="1350" x2="930" y2="1350" stroke-width="3" stroke="rgb(65,170,190)" />
	<line x1="930" y1="1350" x2="930" y2="1400" stroke-width="3" stroke="rgb(65,170,190)" />
	<line x1="930" y1="1400" x2="1495" y2="1400" stroke-width="3" stroke="rgb(65,170,190)" />
	<text x="1520" y="1400" fill="rgb(65,170,190)" font-size="18" font-family="Verdana" >EwApS</text>
	<line x1="930" y1="1350" x2="930" y2="1300" stroke-width="3" stroke="rgb(65,170,190)" />
	<line x1="930" y1="1300" x2="1495" y2="1300" stroke-width="3" stroke="rgb(65,170,190)" />
	<text x="1520" y="1300" fill="rgb(65,170,190)" font-size="18" font-family="Verdana" >EwDaI</text>
	<circle cx="930" cy="1350" r="4.16667" fill="rgb(65,170,190)" stroke-width="3" stroke="rgb(65,170,190)" />
	<circle cx="820" cy="1450" r="4.16667" fill="rgb(65,170,190)" stroke-width="3" stroke="rgb(65,170,190)" />
	<line x1="710" y1="1250" x2="710" y2="1200" stroke-width="3" stroke="rgb(65,170,190)" />
	<line x1="710" y1="1200" x2="1495" y2="1200" stroke-width="3" stroke="rgb(65,170,190)" />
	<text x="1520" y="1200" fill="rgb(65,170,190)" font-size="18" font-family="Verdana" >EwBiE</text>
	<circle cx="710" cy="1250" r="4.16667" fill="rgb(65,170,190)" stroke-width="3" stroke="rgb(65,170,190)" />
	<line x1="600" y1="1150" x2="600" y2="1050" stroke-width="3" stroke="rgb(65,170,190)" />
	<line x1="600" y1="1050" x2="710" y2="1050" stroke-width="3" stroke="rgb(65,170,190)" />
	<line x1="710" y1="1050" x2="710" y2="1100" stroke-width="3" stroke="rgb(65,170,190)" />
	<line x1="710" y1="1100" x2="1495" y2="1100" stroke-width="3" stroke="rgb(65,170,190)" />
	<text x="1520" y="1100" fill="rgb(65,170,190)" font-size="18" font-family="Verdana" >Pantoea_gaviniae_DSM_22758</text>
	<line x1="710" y1="1050" x2="710" y2="1000" stroke-width="3" stroke="rgb(65,170,190)" />
	<line x1="710" y1="1000" x2="1495" y2="1000" stroke-width="3" stroke="rgb(65,170,190)" />
	<text x="1520" y="1000" fill="rgb(65,170,190)" font-size="18" font-family="Verdana" >Pantoea_calida_DSM_22759</text>
	<circle cx="710" cy="1050" r="4.16667" fill="rgb(65,170,190)" stroke-width="3" stroke="rgb(65,170,190)" />
	<circle cx="600" cy="1150" r="4.16667" fill="rgb(65,170,190)" stroke-width="3" stroke="rgb(65,170,190)" />
	<circle cx="490" cy="2475" r="4.16667" fill="rgb(65,170,190)" stroke-width="3" stroke="rgb(65,170,190)" />
	<line x1="380" y1="950" x2="380" y2="525" stroke-width="3" stroke="rgb(65,170,190)" />
	<line x1="380" y1="525" x2="490" y2="525" stroke-width="3" stroke="rgb(65,170,190)" />
	<line x1="490" y1="525" x2="490" y2="725" stroke-width="3" stroke="rgb(65,170,190)" />
	<line x1="490" y1="725" x2="600" y2="725" stroke-width="3" stroke="rgb(65,170,190)" />
	<line x1="600" y1="725" x2="600" y2="850" stroke-width="3" stroke="rgb(65,170,190)" />
	<line x1="600" y1="850" x2="695" y2="850" stroke-width="3" stroke="rgb(65,170,190)" />
	<line x1="695" y1="850" x2="695" y2="825" stroke-width="3" stroke="rgb(65,170,190)" />
	<line x1="695" y1="825" x2="710" y2="825" stroke-width="3" stroke="rgb(65,170,190)" />
	<line x1="716.25" y1="818.75" x2="703.75" y2="831.25" stroke-width="4.16667" stroke="rgb(65,170,190)" />
	<line x1="716.25" y1="831.25" x2="703.75" y2="818.75" stroke-width="4.16667" stroke="rgb(65,170,190)" />
	<path d="M 695 850 Q 490 1687.5 285 2725" stroke-dasharray="4" fill="transparent" stroke-width="0.7" stroke="rgb(65,170,190)" />
	<line x1="285" y1="2725" x2="300" y2="2725" stroke-width="0.7" stroke="rgb(65,170,190)" />
	<line x1="288.75" y1="2720" x2="293.75" y2="2725" stroke-width="0.7" stroke="rgb(65,170,190)" />
	<line x1="288.75" y1="2730" x2="293.75" y2="2725" stroke-width="0.7" stroke="rgb(65,170,190)" />
	<line x1="300" y1="2725" x2="300" y2="2800" stroke-width="3" stroke="rgb(65,170,190)" />
	<line x1="300" y1="2800" x2="1495" y2="2800" stroke-width="3" stroke="rgb(65,170,190)" />
	<text x="1520" y="2800" fill="rgb(65,170,190)" font-size="18" font-family="Verdana" >HCURT</text>
	<line x1="300" y1="2725" x2="300" y2="2650" stroke-width="3" stroke="rgb(65,170,190)" />
	<line x1="300" y1="2650" x2="1495" y2="2650" stroke-width="3" stroke="rgb(65,170,190)" />
	<text x="1520" y="2650" fill="rgb(65,170,190)" font-size="18" font-family="Verdana" >HCURV</text>
	<circle cx="300" cy="2725" r="4.16667" fill="rgb(65,170,190)" stroke-width="3" stroke="rgb(65,170,190)" />
	<line x1="716.25" y1="818.75" x2="703.75" y2="831.25" stroke-width="4.16667" stroke="rgb(65,170,190)" />
	<line x1="716.25" y1="831.25" x2="703.75" y2="818.75" stroke-width="4.16667" stroke="rgb(65,170,190)" />
	<line x1="695" y1="837.5" x2="682.5" y2="850" stroke-width="2.77778" stroke="rgb(65,170,190)" />
	<line x1="707.5" y1="850" x2="695" y2="837.5" stroke-width="2.77778" stroke="rgb(65,170,190)" />
	<line x1="707.5" y1="850" x2="695" y2="862.5" stroke-width="2.77778" stroke="rgb(65,170,190)" />
	<line x1="695" y1="862.5" x2="682.5" y2="850" stroke-width="2.77778" stroke="rgb(65,170,190)" />
	<line x1="600" y1="725" x2="600" y2="625" stroke-width="3" stroke="rgb(65,170,190)" />
	<line x1="600" y1="625" x2="710" y2="625" stroke-width="3" stroke="rgb(65,170,190)" />
	<line x1="710" y1="625" x2="710" y2="675" stroke-width="3" stroke="rgb(65,170,190)" />
	<line x1="710" y1="675" x2="1495" y2="675" stroke-width="3" stroke="rgb(65,170,190)" />
	<text x="1520" y="675" fill="rgb(65,170,190)" font-size="18" font-family="Verdana" >Hamiltonella_defensa_ZA17</text>
	<line x1="710" y1="625" x2="710" y2="575" stroke-width="3" stroke="rgb(65,170,190)" />
	<line x1="710" y1="575" x2="1495" y2="575" stroke-width="3" stroke="rgb(65,170,190)" />
	<text x="1520" y="575" fill="rgb(65,170,190)" font-size="18" font-family="Verdana" >Hamiltonella_defensa_5AT</text>
	<circle cx="710" cy="625" r="4.16667" fill="rgb(65,170,190)" stroke-width="3" stroke="rgb(65,170,190)" />
	<circle cx="600" cy="725" r="4.16667" fill="rgb(65,170,190)" stroke-width="3" stroke="rgb(65,170,190)" />
	<line x1="490" y1="525" x2="490" y2="475" stroke-width="3" stroke="rgb(65,170,190)" />
	<line x1="490" y1="475" x2="1495" y2="475" stroke-width="3" stroke="rgb(65,170,190)" />
	<text x="1520" y="475" fill="rgb(65,170,190)" font-size="18" font-family="Verdana" >Yersinia_pestis_CO92</text>
	<circle cx="490" cy="525" r="4.16667" fill="rgb(65,170,190)" stroke-width="3" stroke="rgb(65,170,190)" />
	<circle cx="380" cy="950" r="4.16667" fill="rgb(65,170,190)" stroke-width="3" stroke="rgb(65,170,190)" />
	<line x1="270" y1="425" x2="270" y2="325" stroke-width="3" stroke="rgb(65,170,190)" />
	<line x1="270" y1="325" x2="380" y2="325" stroke-width="3" stroke="rgb(65,170,190)" />
	<line x1="380" y1="325" x2="380" y2="375" stroke-width="3" stroke="rgb(65,170,190)" />
	<line x1="380" y1="375" x2="1495" y2="375" stroke-width="3" stroke="rgb(65,170,190)" />
	<text x="1520" y="375" fill="rgb(65,170,190)" font-size="18" font-family="Verdana" >Sodalis_praecaptivus_HS1</text>
	<line x1="380" y1="325" x2="380" y2="275" stroke-width="3" stroke="rgb(65,170,190)" />
	<line x1="380" y1="275" x2="1495" y2="275" stroke-width="3" stroke="rgb(65,170,190)" />
	<text x="1520" y="275" fill="rgb(65,170,190)" font-size="18" font-family="Verdana" >Sodalis_pierantonius_SOPE</text>
	<circle cx="380" cy="325" r="4.16667" fill="rgb(65,170,190)" stroke-width="3" stroke="rgb(65,170,190)" />
	<circle cx="270" cy="425" r="4.16667" fill="rgb(65,170,190)" stroke-width="3" stroke="rgb(65,170,190)" />
	<line x1="160" y1="225" x2="160" y2="125" stroke-width="3" stroke="rgb(65,170,190)" />
	<line x1="160" y1="125" x2="270" y2="125" stroke-width="3" stroke="rgb(65,170,190)" />
	<line x1="270" y1="125" x2="270" y2="175" stroke-width="3" stroke="rgb(65,170,190)" />
	<line x1="270" y1="175" x2="1495" y2="175" stroke-width="3" stroke="rgb(65,170,190)" />
	<text x="1520" y="175" fill="rgb(65,170,190)" font-size="18" font-family="Verdana" >Photorhabdus_luminescens_TTO1</text>
	<line x1="270" y1="125" x2="270" y2="75" stroke-width="3" stroke="rgb(65,170,190)" />
	<line x1="270" y1="75" x2="1495" y2="75" stroke-width="3" stroke="rgb(65,170,190)" />
	<text x="1520" y="75" fill="rgb(65,170,190)" font-size="18" font-family="Verdana" >Photorhabdus_asymbiotica_ATCC43949</text>
	<circle cx="270" cy="125" r="4.16667" fill="rgb(65,170,190)" stroke-width="3" stroke="rgb(65,170,190)" />
	<circle cx="160" cy="225" r="4.16667" fill="rgb(65,170,190)" stroke-width="3" stroke="rgb(65,170,190)" />
</svg>
